<?xml version="1.0" ?><svg viewBox="0 0 32 32" xmlns="http://www.w3.org/2000/svg"><title/><g data-name="35-Book" id="_35-Book"><path d="M29.71,8.29A5.87,5.87,0,0,1,28,5a5.87,5.87,0,0,1,1.71-3.29A1,1,0,0,0,29,0H7A5,5,0,0,0,2,5V27a5,5,0,0,0,5,5h5V30H7a3,3,0,0,1-3-3V9a5,5,0,0,0,3,1H28V30H22v2h7a1,1,0,0,0,1-1V9A1,1,0,0,0,29.71,8.29ZM26.13,6A6.85,6.85,0,0,0,27,8H7A3,3,0,0,1,7,2H27a6.85,6.85,0,0,0-.84,2H11V6Z"/><rect height="2" width="2" x="7" y="4"/><path d="M17,13a7,7,0,0,0-3,13.32V28a1,1,0,0,0,1,1v2h4V29a1,1,0,0,0,1-1V26.32A7,7,0,0,0,17,13Zm1.67,11.71a1,1,0,0,0-.67.94V27H16V25.65a1,1,0,0,0-.67-.94,5,5,0,1,1,3.33,0Z"/><path d="M14,20h2v3a2,2,0,0,0,2-2V20h2V18H14Z"/></g></svg>