<?xml version="1.0" ?><svg viewBox="0 0 32 32" xmlns="http://www.w3.org/2000/svg"><title/><g data-name="33-Web Browser" id="_33-Web_Browser"><path d="M29,0H3A3,3,0,0,0,0,3V29a3,3,0,0,0,3,3H29a3,3,0,0,0,3-3V3A3,3,0,0,0,29,0Zm1,29a1,1,0,0,1-1,1H3a1,1,0,0,1-1-1V10H30ZM30,8H2V3A1,1,0,0,1,3,2H29a1,1,0,0,1,1,1Z"/><rect height="2" width="2" x="4" y="4"/><rect height="2" width="2" x="8" y="4"/><rect height="2" width="2" x="26" y="4"/><path d="M8,19H24a1,1,0,0,0,1-1V14a1,1,0,0,0-1-1H8a1,1,0,0,0-1,1v4A1,1,0,0,0,8,19Zm7-4h8v2H15Z"/><path d="M8,27H24a1,1,0,0,0,1-1V22a1,1,0,0,0-1-1H8a1,1,0,0,0-1,1v4A1,1,0,0,0,8,27Zm1-4h8v2H9Z"/></g></svg>