<?xml version="1.0" ?><svg viewBox="0 0 32 32" xmlns="http://www.w3.org/2000/svg"><title/><g data-name="39-Speech Bubble" id="_39-Speech_Bubble"><path d="M21,0H11A11,11,0,0,0,0,11v4A11,11,0,0,0,11,26h1v5a1,1,0,0,0,1.71.71L19.41,26H21A11,11,0,0,0,32,15V11A11,11,0,0,0,21,0Zm9,15a9,9,0,0,1-9,9H19a1,1,0,0,0-.71.29L14,28.59V25a1,1,0,0,0-1-1H11a9,9,0,0,1-9-9V11a9,9,0,0,1,9-9H21a9,9,0,0,1,9,9Z"/><rect height="2" width="20" x="6" y="12"/><rect height="2" width="16" x="8" y="7"/><rect height="2" width="16" x="8" y="17"/></g></svg>