<?xml version="1.0" ?><svg viewBox="0 0 32 32" xmlns="http://www.w3.org/2000/svg"><title/><g data-name="7-Computer-Sad" id="_7-Computer-Sad"><path d="M30,22H2V19H14V17H6V6h6V4H5A1,1,0,0,0,4,5V17H2V3A1,1,0,0,1,3,2H14V0H3A3,3,0,0,0,0,3V23a1,1,0,0,0,1,1H9.85l-.71,5H8a1,1,0,0,0-1,1H5v2H27V30H25a1,1,0,0,0-1-1H22.87l-.71-5H31a1,1,0,0,0,1-1V17H30ZM11.15,29l.71-5h8.27l.71,5Z"/><path d="M23,18a9,9,0,1,0-9-9A9,9,0,0,0,23,18ZM23,2a7,7,0,1,1-7,7A7,7,0,0,1,23,2Z"/><rect height="2" width="2" x="19" y="6"/><rect height="2" width="2" x="25" y="6"/><path d="M23,11a2,2,0,0,1,2,2h2a4,4,0,0,0-8,0h2A2,2,0,0,1,23,11Z"/></g></svg>