<?xml version="1.0" ?><svg viewBox="0 0 32 32" xmlns="http://www.w3.org/2000/svg"><title/><g data-name="29-Arrow Down" id="_29-Arrow_Down"><path d="M25,0H7A7,7,0,0,0,0,7V25a7,7,0,0,0,7,7H25a7,7,0,0,0,7-7V7A7,7,0,0,0,25,0Zm5,25a5,5,0,0,1-5,5H7a5,5,0,0,1-5-5V7A5,5,0,0,1,7,2H25a5,5,0,0,1,5,5Z"/><path d="M16,22a1,1,0,0,0,.71-.29l5-5-1.41-1.41L17,18.59V6H15V18.59l-3.29-3.29-1.41,1.41,5,5A1,1,0,0,0,16,22Z"/><path d="M22,25H10V22H8v3a1.93,1.93,0,0,0,1.93,2H22.07A1.92,1.92,0,0,0,24,25V22H22Z"/></g></svg>