<?xml version="1.0" ?><svg viewBox="0 0 32 32" xmlns="http://www.w3.org/2000/svg"><title/><g data-name="31-Folder-Sharing" id="_31-Folder-Sharing"><path d="M30,7H28V5a2,2,0,0,0-2-2H16V2a1,1,0,0,0-1-1H1A1,1,0,0,0,0,2V22a2,2,0,0,0,2,2H16v5H8v2H26V29H18V24a2,2,0,0,0-2-2H2V3H14V7H5V9H30V22H21v2h9a2,2,0,0,0,2-2V9A2,2,0,0,0,30,7ZM26,7H16V5H26Z"/><rect height="4" rx="1" ry="1" width="4" x="14" y="13"/><rect height="4" rx="1" ry="1" width="4" x="20" y="13"/><rect height="4" rx="1" ry="1" width="4" x="8" y="13"/></g></svg>