<?xml version="1.0" ?><svg viewBox="0 0 32 32" xmlns="http://www.w3.org/2000/svg"><title/><g data-name="30-Finger Gesture" id="_30-Finger_Gesture"><path d="M21,13a6,6,0,0,0-6-6H1V9H15a4,4,0,0,1,0,8H1v2H15a4,4,0,0,1,0,8H1v2H15a6,6,0,0,0,3.31-11A6,6,0,0,0,21,13Z"/><rect height="4" width="2" x="9" y="11"/><rect height="4" width="2" x="5" y="11"/><path d="M15.33,15A1.63,1.63,0,0,0,17,13.33v-.67A1.63,1.63,0,0,0,15.33,11H14a1,1,0,0,0-1,1v2a1,1,0,0,0,1,1Z"/><rect height="4" width="2" x="9" y="21"/><rect height="4" width="2" x="5" y="21"/><path d="M15.33,25A1.63,1.63,0,0,0,17,23.33v-.67A1.63,1.63,0,0,0,15.33,21H14a1,1,0,0,0-1,1v2a1,1,0,0,0,1,1Z"/><path d="M30.29,25.29,28,27.59V14A12,12,0,0,0,16,2H10V4h6A10,10,0,0,1,26,14V27.59l-2.29-2.29-1.41,1.41,4,4a1,1,0,0,0,1.41,0l4-4Z"/><rect height="2" width="2" x="6" y="2"/><rect height="2" width="2" x="2" y="2"/></g></svg>