<?xml version="1.0" ?><svg viewBox="0 0 32 32" xmlns="http://www.w3.org/2000/svg"><title/><g data-name="51-File Format-Jpg" id="_51-File_Format-Jpg"><path d="M2,29V3A1,1,0,0,1,3,2H18V6a2,2,0,0,0,2,2h4v3h2V7a1,1,0,0,0-.29-.71l-6-6A1,1,0,0,0,19,0H3A3,3,0,0,0,0,3V29a3,3,0,0,0,3,3h7V30H3A1,1,0,0,1,2,29Z"/><path d="M30,20H28v2h2v2H26V18h6a2,2,0,0,0-2-2H26a2,2,0,0,0-2,2v6a2,2,0,0,0,2,2h4a2,2,0,0,0,2-2V22A2,2,0,0,0,30,20Z"/><path d="M21,16H17a1,1,0,0,0-1,1v9h2V23h3a2,2,0,0,0,2-2V18A2,2,0,0,0,21,16Zm0,5H18V18h3Z"/><path d="M13,24H9v2h4a2,2,0,0,0,2-2V16H13Z"/></g></svg>