<?xml version="1.0" ?><svg viewBox="0 0 32 32" xmlns="http://www.w3.org/2000/svg"><title/><g data-name="26-Money" id="_26-Money"><path d="M30,0H2A2,2,0,0,0,0,2V30a2,2,0,0,0,2,2h9V30H2V27h9V25H2V22h9V20H2V2H30V15h2V2A2,2,0,0,0,30,0Z"/><path d="M22,11a6,6,0,1,0-6,6A6,6,0,0,0,22,11ZM12,11a4,4,0,1,1,4,4A4,4,0,0,1,12,11Z"/><rect height="2" width="2" x="25" y="10"/><rect height="2" width="2" x="5" y="10"/><path d="M31,18H23a1,1,0,0,0-1,1v3H15a1,1,0,0,0-1,1v8a1,1,0,0,0,1,1H31a1,1,0,0,0,1-1V19A1,1,0,0,0,31,18ZM22,30H16V28h6Zm0-4H16V24h6Zm8,4H24V28h6Zm0-4H24V24h6Zm0-4H24V20h6Z"/></g></svg>