<?xml version="1.0" ?><svg viewBox="0 0 32 32" xmlns="http://www.w3.org/2000/svg"><title/><g data-name="19-Clipboard-Padlock" id="_19-Clipboard-Padlock"><path d="M7,7H23v9h2V6a1,1,0,0,0-1-1H22V4h3a1,1,0,0,1,1,1v9h2V5a3,3,0,0,0-3-3H24a2,2,0,0,0-2-2H8A2,2,0,0,0,6,2H5A3,3,0,0,0,2,5V31a1,1,0,0,0,1,1H14V30H4V5A1,1,0,0,1,5,4H8V5H6A1,1,0,0,0,5,6V28a1,1,0,0,0,1,1H16V27H7Zm3-5H20V5H10Z"/><path d="M29,22H28V20a2,2,0,0,0-2-2H22a2,2,0,0,0-2,2v2H19a1,1,0,0,0-1,1v8a1,1,0,0,0,1,1H29a1,1,0,0,0,1-1V23A1,1,0,0,0,29,22Zm-7-2h4v2H22Zm6,10H20V24h8Z"/><rect height="2" width="2" x="23" y="26"/></g></svg>