<?xml version="1.0" ?><svg viewBox="0 0 32 32" xmlns="http://www.w3.org/2000/svg"><title/><g data-name="54-Shirt" id="_54-Shirt"><path d="M31.71,5.29A20.2,20.2,0,0,0,20.08,0H11.92A20.2,20.2,0,0,0,.29,5.29,1,1,0,0,0,0,6V16a1,1,0,0,0,1,1H6V31a1,1,0,0,0,1,1H25a1,1,0,0,0,1-1V17h5a1,1,0,0,0,1-1V6A1,1,0,0,0,31.71,5.29ZM13,2h6V3a3,3,0,0,1-6,0ZM30,15H26V10H24V30H8V10H6v5H2V6.42a18.2,18.2,0,0,1,9-4.27V3A5,5,0,0,0,21,3V2.15a18.13,18.13,0,0,1,9,4.27Z"/><path d="M16,20a3,3,0,0,1-3-3H11a5,5,0,0,0,10,0H19A3,3,0,0,1,16,20Z"/><rect height="2" width="2" x="13" y="13"/><rect height="2" width="2" x="17" y="13"/></g></svg>