<?xml version="1.0" ?><svg viewBox="0 0 32 32" xmlns="http://www.w3.org/2000/svg"><title/><g data-name="4-Sick" id="_4-Sick"><path d="M16,0A16,16,0,1,0,32,16,16,16,0,0,0,16,0Zm0,30A14,14,0,1,1,30,16,14,14,0,0,1,16,30Z"/><circle cx="11" cy="11" r="2"/><circle cx="21" cy="11" r="2"/><path d="M19.62,18.19l-2.22,1.58-2.22-1.58a1,1,0,0,0-1.16,0L11.8,19.77,9.58,18.19,8.42,19.81l2.8,2a1,1,0,0,0,1.16,0l2.22-1.58,2.22,1.58a1,1,0,0,0,1.16,0l2.22-1.59,2.22,1.59,1.16-1.63-2.8-2A1,1,0,0,0,19.62,18.19Z"/></g></svg>