<?xml version="1.0" ?><svg viewBox="0 0 32 32" xmlns="http://www.w3.org/2000/svg"><title/><g data-name="39-Slippers" id="_39-Slippers"><path d="M18,8A8,8,0,0,0,2,8V24a8,8,0,0,0,16,0ZM16,24A6,6,0,0,1,4,24V8A6,6,0,0,1,9,2.09v5.5L5.29,11.29l1.41,1.41L10,9.41l3.29,3.29,1.41-1.41L11,7.59V2.09A6,6,0,0,1,16,8Z"/><path d="M22,0a7.93,7.93,0,0,0-4.57,1.45l1.15,1.64a6,6,0,0,1,2.43-1v5.5L19.29,9.29l1.41,1.41L22,9.41l3.29,3.29,1.41-1.41L23,7.59V2.09A6,6,0,0,1,28,8V24a6,6,0,0,1-6,6,5.94,5.94,0,0,1-3.43-1.08l-1.15,1.64A8,8,0,0,0,30,24V8A8,8,0,0,0,22,0Z"/></g></svg>