<?xml version="1.0" ?><svg viewBox="0 0 32 32" xmlns="http://www.w3.org/2000/svg"><title/><g data-name="22-Sofa" id="_22-Sofa"><path d="M31,12H29V6a3,3,0,0,0-3-3H17a2.09,2.09,0,0,0-1,.26A2.09,2.09,0,0,0,15,3H6A3,3,0,0,0,3,6v6H1a1,1,0,0,0-1,1V23a3,3,0,0,0,3,3v2a1,1,0,0,0,1,1H6a1,1,0,0,0,1-1V26H25v2a1,1,0,0,0,1,1h2a1,1,0,0,0,1-1V26a3,3,0,0,0,3-3V13A1,1,0,0,0,31,12ZM6,23a1,1,0,0,1-1,1H3a1,1,0,0,1-1-1V14H5a1,1,0,0,1,1,1Zm1.82,1A3,3,0,0,0,8,23V20H24v3a3,3,0,0,0,.18,1ZM24,15v3H8V15a3,3,0,0,0-3-3V6A1,1,0,0,1,6,5h9v9h2V5h9a1,1,0,0,1,1,1v6A3,3,0,0,0,24,15Zm6,8a1,1,0,0,1-1,1H27a1,1,0,0,1-1-1V15a1,1,0,0,1,1-1h3Z"/></g></svg>