<?xml version="1.0" ?><svg viewBox="0 0 32 32" xmlns="http://www.w3.org/2000/svg"><title/><g data-name="98-Surprised" id="_98-Surprised"><path d="M16,0A16,16,0,1,0,32,16,16,16,0,0,0,16,0Zm0,30A14,14,0,1,1,30,16,14,14,0,0,1,16,30Z"/><path d="M26,9H6a1,1,0,0,0-1,1v3a3,3,0,0,0,3,3h4a3,3,0,0,0,3-3V11h2v2a3,3,0,0,0,3,3h4a3,3,0,0,0,3-3V10A1,1,0,0,0,26,9Z"/><path d="M23.05,17a1,1,0,0,0-.82.36c-.55.66-3.23,4-2.22,6.18.31.67,1.09,1.46,3,1.46a2.55,2.55,0,0,0,2.48-1.25c1.08-2-1.18-5.6-1.65-6.3A1,1,0,0,0,23.05,17Zm.66,5.8c-.1.18-.57.2-.71.2-.76,0-1.11-.17-1.18-.31-.22-.46.32-1.69,1.09-2.87C23.54,21.06,24,22.35,23.71,22.8Z"/><path d="M7,24H9a2,2,0,0,1,2-2h7V20H11A4,4,0,0,0,7,24Z"/></g></svg>