<?xml version="1.0" ?><svg viewBox="0 0 32 32" xmlns="http://www.w3.org/2000/svg"><title/><g data-name="69-Calendar" id="_69-Calendar"><rect height="2" width="2" x="4" y="4"/><rect height="2" width="2" x="26" y="4"/><path d="M29,0H3A3,3,0,0,0,0,3V29a3,3,0,0,0,3,3H26a1,1,0,0,0,.71-.29l5-5A1,1,0,0,0,32,26V3A3,3,0,0,0,29,0Zm1,25H27a2,2,0,0,0-2,2v3H3a1,1,0,0,1-1-1V10H30ZM10,8V6H22V8ZM30,8H24V5a1,1,0,0,0-1-1H9A1,1,0,0,0,8,5V8H2V3A1,1,0,0,1,3,2H29a1,1,0,0,1,1,1Z"/><path d="M7.71,28.71l4.11-4.11a7,7,0,1,0-1.41-1.41L6.29,27.29ZM16,14a5,5,0,1,1-5,5A5,5,0,0,1,16,14Z"/></g></svg>