<?xml version="1.0" ?><svg viewBox="0 0 32 32" xmlns="http://www.w3.org/2000/svg"><title/><g data-name="15-Music-Player-Button" id="_15-Music-Player-Button"><path d="M29,0H3A3,3,0,0,0,0,3V29a3,3,0,0,0,3,3H29a3,3,0,0,0,3-3V3A3,3,0,0,0,29,0Zm1,29a1,1,0,0,1-1,1H3a1,1,0,0,1-1-1V3A1,1,0,0,1,3,2H22V3a1,1,0,0,0,1,1h4a1,1,0,0,0,1-1V2h1a1,1,0,0,1,1,1Z"/><path d="M16,5A11,11,0,1,0,27,16,11,11,0,0,0,16,5Zm0,20a9,9,0,1,1,9-9A9,9,0,0,1,16,25Z"/><path d="M16,12a4,4,0,1,0,4,4A4,4,0,0,0,16,12Zm0,6a2,2,0,1,1,2-2A2,2,0,0,1,16,18Z"/></g></svg>