<?xml version="1.0" ?><svg viewBox="0 0 32 32" xmlns="http://www.w3.org/2000/svg"><title/><g data-name="68-Cherry" id="_68-Cherry"><path d="M21.68,16c-1.07-2.71-2.79-8.77-.76-11.88A4.38,4.38,0,0,1,23.3,2.39,17.12,17.12,0,0,1,27,2V0c-.34,0-.67,0-1,0V0a10.6,10.6,0,0,0-3.26.47C12.75,2.76,10.55,13,10.11,16.05a8,8,0,1,0,2,0,21.23,21.23,0,0,1,2.14-6.62,14.11,14.11,0,0,1,4.33-5c-1.46,3.91.12,9.29,1,11.71a7.9,7.9,0,0,0-2,.64l.86,1.81A6,6,0,1,1,21,30a6,6,0,0,1-1.71-.25l-.57,1.92a8,8,0,1,0,3-15.63ZM17,24a6,6,0,1,1-6-6A6,6,0,0,1,17,24Z"/><path d="M7,24H9a2,2,0,0,1,2-2V20A4,4,0,0,0,7,24Z"/></g></svg>