<?xml version="1.0" ?><svg viewBox="0 0 32 32" xmlns="http://www.w3.org/2000/svg"><title/><g data-name="24-Computer-Process" id="_24-Computer-Process"><path d="M30,15v2H6V6H16V4H5A1,1,0,0,0,4,5V17H2V3A1,1,0,0,1,3,2H18V0H3A3,3,0,0,0,0,3V23a1,1,0,0,0,1,1H9.85l-.71,5H8a1,1,0,0,0-1,1H5v2H27V30H25a1,1,0,0,0-1-1H22.87l-.71-5H31a1,1,0,0,0,1-1V15ZM11.15,29l.71-5h8.27l.71,5ZM30,22H2V19H30Z"/><path d="M21.57,9l-1.27,1.27,1.41,1.41L23,10.43a4,4,0,0,0,1,.42V13h2V10.86a4,4,0,0,0,1-.42l1.27,1.27,1.41-1.41L28.43,9a4,4,0,0,0,.42-1H31V6H28.86a4,4,0,0,0-.42-1l1.27-1.27L28.29,2.29,27,3.57a4,4,0,0,0-1-.42V1H24V3.14a4,4,0,0,0-1,.42L21.71,2.29,20.29,3.71,21.57,5a4,4,0,0,0-.42,1H19V8h2.14A4,4,0,0,0,21.57,9ZM25,5a2,2,0,1,1-2,2A2,2,0,0,1,25,5Z"/></g></svg>