<?xml version="1.0" ?><svg viewBox="0 0 32 32" xmlns="http://www.w3.org/2000/svg"><title/><g data-name="49-Document-Financial" id="_49-Document-Financial"><path d="M28.71,6.29l-6-6A1,1,0,0,0,22,0H6A3,3,0,0,0,3,3V29a3,3,0,0,0,3,3H26a3,3,0,0,0,3-3V7A1,1,0,0,0,28.71,6.29ZM27,29a1,1,0,0,1-1,1H6a1,1,0,0,1-1-1V3A1,1,0,0,1,6,2H21V6a2,2,0,0,0,2,2h4Z"/><path d="M11,11a3,3,0,1,0,3,3A3,3,0,0,0,11,11Zm0,4a1,1,0,1,1,1-1A1,1,0,0,1,11,15Z"/><path d="M11,21a3,3,0,1,0,3,3A3,3,0,0,0,11,21Zm0,4a1,1,0,1,1,1-1A1,1,0,0,1,11,25Z"/><rect height="2" width="8" x="16" y="11"/><rect height="2" width="4" x="16" y="15"/><rect height="2" width="8" x="16" y="21"/><rect height="2" width="4" x="16" y="25"/></g></svg>