<?xml version="1.0" ?><svg viewBox="0 0 32 32" xmlns="http://www.w3.org/2000/svg"><title/><g data-name="58-Drawer" id="_58-Drawer"><path d="M29,0H3A3,3,0,0,0,0,3V29a3,3,0,0,0,3,3H29a3,3,0,0,0,3-3V3A3,3,0,0,0,29,0ZM15,30H3a1,1,0,0,1-1-1V24H15Zm0-8H2V16H15Zm15,7a1,1,0,0,1-1,1H17V24H30Zm0-7H17V16H30Zm0-8H2V3A1,1,0,0,1,3,2H29a1,1,0,0,1,1,1Z"/><rect height="2" width="2" x="20" y="26"/><rect height="2" width="2" x="10" y="26"/><rect height="2" width="2" x="20" y="18"/><rect height="2" width="2" x="10" y="18"/></g></svg>