<?xml version="1.0" ?><svg viewBox="0 0 32 32" xmlns="http://www.w3.org/2000/svg"><title/><g data-name="31-Clipboard" id="_31-Clipboard"><path d="M26,2H25a2,2,0,0,0-2-2H9A2,2,0,0,0,7,2H6A3,3,0,0,0,3,5V31a1,1,0,0,0,1,1H28a1,1,0,0,0,1-1V5A3,3,0,0,0,26,2ZM11,2H21V5H11ZM10,7H24V23H21a1,1,0,0,0-1,1v3H8V7ZM27,30H5V5A1,1,0,0,1,6,4H9V5H7A1,1,0,0,0,6,6V28a1,1,0,0,0,1,1H21a1,1,0,0,0,.71-.29l4-4A1,1,0,0,0,26,24V6a1,1,0,0,0-1-1H23V4h3a1,1,0,0,1,1,1Z"/><path d="M13,12h2v9h2V12h2a2,2,0,0,0,2,2V11a1,1,0,0,0-1-1H12a1,1,0,0,0-1,1l.06,1H11v2A2,2,0,0,0,13,12Z"/></g></svg>