<?xml version="1.0" ?><svg viewBox="0 0 32 32" xmlns="http://www.w3.org/2000/svg"><title/><g data-name="40-Headphone" id="_40-Headphone"><path d="M31,20H30a3,3,0,0,0-3-3V5a3.89,3.89,0,0,0-4-4H9A3.89,3.89,0,0,0,5,5V17a3,3,0,0,0-3,3H1a1,1,0,0,0-1,1v6a1,1,0,0,0,1,1H2a3,3,0,0,0,3,3H9a1,1,0,0,0,1-1V18a1,1,0,0,0-1-1H7V5A1.88,1.88,0,0,1,9,3H23a1.88,1.88,0,0,1,2,2V17H23a1,1,0,0,0-1,1V30a1,1,0,0,0,1,1h4a3,3,0,0,0,3-3h1a1,1,0,0,0,1-1V21A1,1,0,0,0,31,20ZM8,19V29H5a1,1,0,0,1-1-1V20a1,1,0,0,1,1-1Zm20,2v7a1,1,0,0,1-1,1H24V19h3a1,1,0,0,1,1,1Z"/></g></svg>