<?xml version="1.0" ?><svg viewBox="0 0 32 32" xmlns="http://www.w3.org/2000/svg"><title/><g data-name="76-File Format-Mp4" id="_76-File_Format-Mp4"><path d="M26,11V7a1,1,0,0,0-.29-.71l-6-6A1,1,0,0,0,19,0H3A3,3,0,0,0,0,3V29a3,3,0,0,0,3,3h7V30H3a1,1,0,0,1-1-1V3A1,1,0,0,1,3,2H18V6a2,2,0,0,0,2,2h4v3Z"/><path d="M22,16H18a1,1,0,0,0-1,1v9h2V23h3a2,2,0,0,0,2-2V18A2,2,0,0,0,22,16Zm0,5H19V18h3Z"/><path d="M15.38,16.08a1,1,0,0,0-1.09.22L12,18.59,9.71,16.29A1,1,0,0,0,8,17v9h2V19.41l1.29,1.29a1,1,0,0,0,1.41,0L14,19.41V26h2V17A1,1,0,0,0,15.38,16.08Z"/><path d="M31,21V16H29v5H27V16H25v6a1,1,0,0,0,1,1h3v3h2V23h1V21Z"/></g></svg>