<?xml version="1.0" ?><svg viewBox="0 0 32 32" xmlns="http://www.w3.org/2000/svg"><title/><g data-name="57-File Format-Php" id="_57-File_Format-Php"><path d="M26,11V7a1,1,0,0,0-.29-.71l-6-6A1,1,0,0,0,19,0H3A3,3,0,0,0,0,3V29a3,3,0,0,0,3,3h7V30H3a1,1,0,0,1-1-1V3A1,1,0,0,1,3,2H18V6a2,2,0,0,0,2,2h4v3Z"/><path d="M13,16H9a1,1,0,0,0-1,1v9h2V23h3a2,2,0,0,0,2-2V18A2,2,0,0,0,13,16Zm0,5H10V18h3Z"/><path d="M30,16H26a1,1,0,0,0-1,1v9h2V23h3a2,2,0,0,0,2-2V18A2,2,0,0,0,30,16Zm0,5H27V18h3Z"/><polygon points="22 20 18 20 18 16 16 16 16 26 18 26 18 22 22 22 22 26 24 26 24 16 22 16 22 20"/></g></svg>