<?xml version="1.0" ?><svg viewBox="0 0 32 32" xmlns="http://www.w3.org/2000/svg"><title/><g data-name="89-Picture" id="_89-Picture"><path d="M29,0H3A3,3,0,0,0,0,3V29a3,3,0,0,0,3,3H29a3,3,0,0,0,3-3V3A3,3,0,0,0,29,0Zm1,29a1,1,0,0,1-1,1H17V27.44A4,4,0,0,0,19,28h4a4,4,0,0,0,4-4V21a1,1,0,0,0-1-1H19a4,4,0,0,0-2,.56V19H15v1.56A4,4,0,0,0,13,20H6a1,1,0,0,0-1,1v3a4,4,0,0,0,4,4h4a4,4,0,0,0,2-.56V30H3a1,1,0,0,1-1-1V3A1,1,0,0,1,3,2H29a1,1,0,0,1,1,1ZM17,24a2,2,0,0,1,2-2h6v2a2,2,0,0,1-2,2H19A2,2,0,0,1,17,24Zm-2,0a2,2,0,0,1-2,2H9a2,2,0,0,1-2-2V22h6A2,2,0,0,1,15,24Z"/><rect height="2" width="2" x="4" y="4"/><rect height="2" width="2" x="26" y="4"/><path d="M23,14V6a1,1,0,0,0-1.71-.71L19,7.59,16.71,5.29a1,1,0,0,0-1.41,0L13,7.59,10.71,5.29A1,1,0,0,0,9,6v8s.08,5,7,5S23,14,23,14ZM16,7.41,17.59,9,16,10.59,14.41,9ZM21,14c0,.31-.22,3-5,3s-5-2.7-5-3V8.41l4.29,4.29a1,1,0,0,0,1.41,0L21,8.41Z"/></g></svg>