<?xml version="1.0" ?><svg viewBox="0 0 32 32" xmlns="http://www.w3.org/2000/svg"><title/><g data-name="47-Speech Bubble-Question" id="_47-Speech_Bubble-Question"><path d="M21,0H11A11,11,0,0,0,0,11v4A11,11,0,0,0,11,26h1v5a1,1,0,0,0,1.71.71L19.41,26H21A11,11,0,0,0,32,15V11A11,11,0,0,0,21,0Zm9,15a9,9,0,0,1-9,9H19a1,1,0,0,0-.71.29L14,28.59V25a1,1,0,0,0-1-1H11a9,9,0,0,1-9-9V11a9,9,0,0,1,9-9H21a9,9,0,0,1,9,9Z"/><path d="M20.21,17.68A5,5,0,0,0,21,15V11a5,5,0,0,0-10,0v4a5,5,0,0,0,7.8,4.14A3.84,3.84,0,0,0,21,20h2V18H21A1.68,1.68,0,0,1,20.21,17.68ZM19,15a3,3,0,0,1-6,0V11a3,3,0,0,1,6,0Z"/></g></svg>