<?xml version="1.0" ?><svg viewBox="0 0 32 32" xmlns="http://www.w3.org/2000/svg"><title/><g data-name="34-Smartphone-Power" id="_34-Smartphone-Power"><path d="M21,22H5V7h6V5H5V3A1,1,0,0,1,6,2h8V0H6A3,3,0,0,0,3,3V29a3,3,0,0,0,3,3H20a3,3,0,0,0,3-3V19H21Zm0,7a1,1,0,0,1-1,1H6a1,1,0,0,1-1-1V24H21Z"/><rect height="2" width="2" x="12" y="26"/><path d="M26.6,3.28,25.2,4.71a6,6,0,1,1-8.4,0L15.4,3.29a8,8,0,1,0,11.2,0Z"/><rect height="6" width="2" x="20" y="1"/><rect height="2" width="2" x="20" y="9"/></g></svg>