<?xml version="1.0" ?><svg viewBox="0 0 32 32" xmlns="http://www.w3.org/2000/svg"><title/><g data-name="6-Padlock" id="_6-Padlock"><path d="M28,10H27V9a2,2,0,0,0-2.05-2H24V2a1.92,1.92,0,0,0-1.93-2H9.93A1.93,1.93,0,0,0,8,2V7H7.05A2,2,0,0,0,5,9v1H4a1,1,0,0,0-1,1V29a3,3,0,0,0,3,3H26a3,3,0,0,0,3-3V11A1,1,0,0,0,28,10ZM10,2H22V7H10Zm-3,7H25v1H7ZM27,29a1,1,0,0,1-1,1H6a1,1,0,0,1-1-1V12H27Z"/><path d="M14,25a1,1,0,0,0,1,1h2a1,1,0,0,0,1-1V21.23a3,3,0,1,0-4,0Zm2-7a1,1,0,0,1,1,1,1,1,0,0,1-.49.85,1,1,0,0,0-.51.87,1,1,0,0,0-.51-.87A1,1,0,0,1,15,19,1,1,0,0,1,16,18Z"/></g></svg>