<?xml version="1.0" ?><svg viewBox="0 0 32 32" xmlns="http://www.w3.org/2000/svg"><title/><g data-name="30-User-Location" id="_30-User-Location"><path d="M15,32H1a1,1,0,0,1-1-1V29c0-2.59,3.79-3.72,4.7-4L12,22.31V20.91a8.07,8.07,0,0,1-4-6.16A2,2,0,0,1,7,13V11A2,2,0,0,1,8,9.27V8A8,8,0,0,1,24,8V9.27A2,2,0,0,1,25,11v2H23V11a1,1,0,0,1-1-1V8A6,6,0,0,0,10,8v2a1,1,0,0,1-1,1v2a1,1,0,0,1,1,1,6,6,0,0,0,3.43,5.41,1,1,0,0,1,.57.9V23a1,1,0,0,1-.65.94l-8,3-.11,0C3.92,27.3,2,28.22,2,29v1H15Z"/><path d="M23,29a1,1,0,0,1-.71-.29C18,24.46,18,21.14,18,21a5,5,0,0,1,10,0c0,.14,0,3.46-4.29,7.71A1,1,0,0,1,23,29Zm-3-8c0,.1.14,2.4,3,5.56C25.9,23.33,26,21,26,21a3,3,0,0,0-6,0Z"/><rect height="2" width="2" x="22" y="20"/></g></svg>