<?xml version="1.0" ?><svg viewBox="0 0 32 32" xmlns="http://www.w3.org/2000/svg"><title/><g data-name="1-Watch" id="_1-Watch"><path d="M25.95,15a9.93,9.93,0,0,0-2-5h0V4h1V2H24V0H22V2H10V0H8V2H7V4H8v6H8a10,10,0,0,0-1.56,3H5v2H6.05c0,.33-.05.66-.05,1s0,.67.05,1H5v2H6.46A10,10,0,0,0,8,22H8v6H7v2H8v2h2V30H22v2h2V30h1V28H24V22h0a9.93,9.93,0,0,0,2-5H27V15ZM10,4H22V8A9.92,9.92,0,0,0,10,8ZM22,28H10V24a9.92,9.92,0,0,0,12,0Zm-6-4a8,8,0,1,1,8-8A8,8,0,0,1,16,24Z"/><path d="M17,12H15v4a1,1,0,0,0,.29.71l3,3,1.41-1.41L17,15.59Z"/></g></svg>