<?xml version="1.0" ?><svg viewBox="0 0 32 32" xmlns="http://www.w3.org/2000/svg"><title/><g data-name="14-Zip File-Time" id="_14-Zip_File-Time"><path d="M2,29V3A1,1,0,0,1,3,2H7V4A2,2,0,0,0,5,6H7V7A2,2,0,0,0,5,9H7v1a2,2,0,0,0-2,2H7v2H6a1,1,0,0,0-1,1v6a1,1,0,0,0,1,1h4a1,1,0,0,0,1-1V15a1,1,0,0,0-1-1H9V12a2,2,0,0,0,2-2H9V9a2,2,0,0,0,2-2H9V6a2,2,0,0,0,2-2H9V2h9V6a2,2,0,0,0,2,2h4v4h2V7a1,1,0,0,0-.29-.71l-6-6A1,1,0,0,0,19,0H3A3,3,0,0,0,0,3V29a3,3,0,0,0,3,3H14V30H3A1,1,0,0,1,2,29Zm7-9H7V18H9Z"/><path d="M23,14a9,9,0,1,0,9,9A9,9,0,0,0,23,14Zm0,16a7,7,0,1,1,7-7A7,7,0,0,1,23,30Z"/><path d="M24,19H22v4a1,1,0,0,0,.29.71l3,3,1.41-1.41L24,22.59Z"/></g></svg>